<mxfile host="app.diagrams.net" modified="2023-05-12T09:13:34.178Z" agent="Mozilla/5.0 (Windows NT 10.0; Win64; x64) AppleWebKit/537.36 (KHTML, like Gecko) Chrome/109.0.0.0 Safari/537.36" etag="b4LDhZj6eB77GCmO04Ei" version="21.2.9" type="github">
  <diagram id="C5RBs43oDa-KdzZeNtuy" name="Page-1">
    <mxGraphModel dx="1120" dy="452" grid="1" gridSize="10" guides="1" tooltips="1" connect="1" arrows="1" fold="1" page="1" pageScale="1" pageWidth="827" pageHeight="1169" math="0" shadow="0">
      <root>
        <mxCell id="WIyWlLk6GJQsqaUBKTNV-0" />
        <mxCell id="WIyWlLk6GJQsqaUBKTNV-1" parent="WIyWlLk6GJQsqaUBKTNV-0" />
        <mxCell id="8xLhffzcsxscxYn0-teY-5" value="" style="edgeStyle=orthogonalEdgeStyle;rounded=0;orthogonalLoop=1;jettySize=auto;html=1;" edge="1" parent="WIyWlLk6GJQsqaUBKTNV-1" source="WIyWlLk6GJQsqaUBKTNV-3" target="8xLhffzcsxscxYn0-teY-4">
          <mxGeometry relative="1" as="geometry" />
        </mxCell>
        <mxCell id="WIyWlLk6GJQsqaUBKTNV-3" value="运营打开预热页面" style="rounded=1;whiteSpace=wrap;html=1;fontSize=12;glass=0;strokeWidth=1;shadow=0;" parent="WIyWlLk6GJQsqaUBKTNV-1" vertex="1">
          <mxGeometry x="160" y="20" width="120" height="40" as="geometry" />
        </mxCell>
        <mxCell id="8xLhffzcsxscxYn0-teY-9" value="" style="edgeStyle=orthogonalEdgeStyle;rounded=0;orthogonalLoop=1;jettySize=auto;html=1;" edge="1" parent="WIyWlLk6GJQsqaUBKTNV-1" source="8xLhffzcsxscxYn0-teY-4" target="8xLhffzcsxscxYn0-teY-8">
          <mxGeometry relative="1" as="geometry" />
        </mxCell>
        <mxCell id="8xLhffzcsxscxYn0-teY-4" value="上传驱动视频并填写名字" style="rounded=1;whiteSpace=wrap;html=1;fontSize=12;glass=0;strokeWidth=1;shadow=0;" vertex="1" parent="WIyWlLk6GJQsqaUBKTNV-1">
          <mxGeometry x="160" y="110" width="120" height="40" as="geometry" />
        </mxCell>
        <mxCell id="8xLhffzcsxscxYn0-teY-11" style="edgeStyle=orthogonalEdgeStyle;rounded=0;orthogonalLoop=1;jettySize=auto;html=1;" edge="1" parent="WIyWlLk6GJQsqaUBKTNV-1" source="8xLhffzcsxscxYn0-teY-8" target="8xLhffzcsxscxYn0-teY-10">
          <mxGeometry relative="1" as="geometry" />
        </mxCell>
        <mxCell id="8xLhffzcsxscxYn0-teY-18" value="" style="edgeStyle=orthogonalEdgeStyle;rounded=0;orthogonalLoop=1;jettySize=auto;html=1;" edge="1" parent="WIyWlLk6GJQsqaUBKTNV-1" source="8xLhffzcsxscxYn0-teY-8" target="8xLhffzcsxscxYn0-teY-17">
          <mxGeometry relative="1" as="geometry" />
        </mxCell>
        <mxCell id="8xLhffzcsxscxYn0-teY-8" value="驱动视频、名字" style="shape=parallelogram;perimeter=parallelogramPerimeter;whiteSpace=wrap;html=1;fixedSize=1;rounded=1;glass=0;strokeWidth=1;shadow=0;" vertex="1" parent="WIyWlLk6GJQsqaUBKTNV-1">
          <mxGeometry x="160" y="220" width="120" height="60" as="geometry" />
        </mxCell>
        <mxCell id="8xLhffzcsxscxYn0-teY-10" value="DB" style="strokeWidth=2;html=1;shape=mxgraph.flowchart.database;whiteSpace=wrap;" vertex="1" parent="WIyWlLk6GJQsqaUBKTNV-1">
          <mxGeometry x="190" y="340" width="60" height="90" as="geometry" />
        </mxCell>
        <mxCell id="8xLhffzcsxscxYn0-teY-20" style="edgeStyle=orthogonalEdgeStyle;rounded=0;orthogonalLoop=1;jettySize=auto;html=1;" edge="1" parent="WIyWlLk6GJQsqaUBKTNV-1" source="8xLhffzcsxscxYn0-teY-17" target="8xLhffzcsxscxYn0-teY-19">
          <mxGeometry relative="1" as="geometry" />
        </mxCell>
        <mxCell id="8xLhffzcsxscxYn0-teY-17" value="生成合成任务，上传mq" style="rounded=1;whiteSpace=wrap;html=1;glass=0;strokeWidth=1;shadow=0;" vertex="1" parent="WIyWlLk6GJQsqaUBKTNV-1">
          <mxGeometry x="360" y="220" width="120" height="60" as="geometry" />
        </mxCell>
        <mxCell id="8xLhffzcsxscxYn0-teY-22" value="" style="edgeStyle=orthogonalEdgeStyle;rounded=0;orthogonalLoop=1;jettySize=auto;html=1;" edge="1" parent="WIyWlLk6GJQsqaUBKTNV-1" source="8xLhffzcsxscxYn0-teY-19" target="8xLhffzcsxscxYn0-teY-21">
          <mxGeometry relative="1" as="geometry" />
        </mxCell>
        <mxCell id="8xLhffzcsxscxYn0-teY-19" value="MQ" style="strokeWidth=2;html=1;shape=mxgraph.flowchart.direct_data;whiteSpace=wrap;" vertex="1" parent="WIyWlLk6GJQsqaUBKTNV-1">
          <mxGeometry x="600" y="220" width="100" height="60" as="geometry" />
        </mxCell>
        <mxCell id="8xLhffzcsxscxYn0-teY-24" value="" style="edgeStyle=orthogonalEdgeStyle;rounded=0;orthogonalLoop=1;jettySize=auto;html=1;" edge="1" parent="WIyWlLk6GJQsqaUBKTNV-1" source="8xLhffzcsxscxYn0-teY-21" target="8xLhffzcsxscxYn0-teY-23">
          <mxGeometry relative="1" as="geometry" />
        </mxCell>
        <mxCell id="8xLhffzcsxscxYn0-teY-21" value="缓存视频消费任务&lt;br&gt;并发起合成" style="rounded=1;whiteSpace=wrap;html=1;strokeWidth=2;" vertex="1" parent="WIyWlLk6GJQsqaUBKTNV-1">
          <mxGeometry x="590" y="360" width="120" height="60" as="geometry" />
        </mxCell>
        <mxCell id="8xLhffzcsxscxYn0-teY-25" style="edgeStyle=orthogonalEdgeStyle;rounded=0;orthogonalLoop=1;jettySize=auto;html=1;" edge="1" parent="WIyWlLk6GJQsqaUBKTNV-1" source="8xLhffzcsxscxYn0-teY-23" target="8xLhffzcsxscxYn0-teY-10">
          <mxGeometry relative="1" as="geometry" />
        </mxCell>
        <mxCell id="8xLhffzcsxscxYn0-teY-23" value="底层合成成功后&lt;br&gt;上传文件并更新数据库状态" style="rounded=1;whiteSpace=wrap;html=1;strokeWidth=2;" vertex="1" parent="WIyWlLk6GJQsqaUBKTNV-1">
          <mxGeometry x="590" y="500" width="120" height="60" as="geometry" />
        </mxCell>
      </root>
    </mxGraphModel>
  </diagram>
</mxfile>
